REM DIRINDEX 1\2,1\3,1\4,1\5
REM DIRNAME "folder01","folder02","folder03","folder04","folder05"
TITLE ""
FILE "P1Q_t_1588-1597.mp3" MP3
  TRACK 01 AUDIO
    TITLE "3:cjc173_5744"
    INDEX 01 00:00:00
  TRACK 02 AUDIO
    TITLE "0:"
    INDEX 01 00:01:22
  TRACK 03 AUDIO
    TITLE "4:cjc173_5745"
    INDEX 01 00:01:41
  TRACK 04 AUDIO
    TITLE "0:"
    INDEX 01 00:04:57
  TRACK 05 AUDIO
    TITLE "5:cjc173_5746"
    INDEX 01 00:05:02
  TRACK 06 AUDIO
    TITLE "0:"
    INDEX 01 00:09:70
  TRACK 07 AUDIO
    TITLE "3:cjc173_5747"
    INDEX 01 00:10:42
  TRACK 08 AUDIO
    TITLE "0:"
    INDEX 01 00:11:75
  TRACK 09 AUDIO
    TITLE "4:cjc173_5748"
    INDEX 01 00:12:21
  TRACK 10 AUDIO
    TITLE "0:"
    INDEX 01 00:15:47
  TRACK 11 AUDIO
    TITLE "5:cjc173_5749"
    INDEX 01 00:15:69
  TRACK 12 AUDIO
    TITLE "0:"
    INDEX 01 00:19:68
  TRACK 13 AUDIO
    TITLE "3:cjc173_5750"
    INDEX 01 00:20:38
  TRACK 14 AUDIO
    TITLE "0:"
    INDEX 01 00:21:63
  TRACK 15 AUDIO
    TITLE "4:cjc173_5751"
    INDEX 01 00:22:10
  TRACK 16 AUDIO
    TITLE "0:"
    INDEX 01 00:24:46
  TRACK 17 AUDIO
    TITLE "5:cjc173_5752"
    INDEX 01 00:24:66
  TRACK 18 AUDIO
    TITLE "0:"
    INDEX 01 00:30:04
  TRACK 19 AUDIO
    TITLE "3:cjc173_5753"
    INDEX 01 00:30:51
  TRACK 20 AUDIO
    TITLE "0:"
    INDEX 01 00:32:22
  TRACK 21 AUDIO
    TITLE "4:cjc173_5754"
    INDEX 01 00:32:42
  TRACK 22 AUDIO
    TITLE "0:"
    INDEX 01 00:34:09
  TRACK 23 AUDIO
    TITLE "5:cjc173_5755"
    INDEX 01 00:34:29
  TRACK 24 AUDIO
    TITLE "0:"
    INDEX 01 00:39:48
  TRACK 25 AUDIO
    TITLE "3:cjc173_5756"
    INDEX 01 00:40:18
  TRACK 26 AUDIO
    TITLE "0:"
    INDEX 01 00:41:33
  TRACK 27 AUDIO
    TITLE "4:cjc173_5757"
    INDEX 01 00:41:56
  TRACK 28 AUDIO
    TITLE "0:"
    INDEX 01 00:44:13
  TRACK 29 AUDIO
    TITLE "5:cjc173_5758"
    INDEX 01 00:44:33
  TRACK 30 AUDIO
    TITLE "0:"
    INDEX 01 00:49:52
  TRACK 31 AUDIO
    TITLE "3:cjc173_5759"
    INDEX 01 00:50:22
  TRACK 32 AUDIO
    TITLE "0:"
    INDEX 01 00:51:37
  TRACK 33 AUDIO
    TITLE "4:cjc173_5760"
    INDEX 01 00:51:61
  TRACK 34 AUDIO
    TITLE "0:"
    INDEX 01 00:55:35
  TRACK 35 AUDIO
    TITLE "5:cjc173_5761"
    INDEX 01 00:55:54
  TRACK 36 AUDIO
    TITLE "0:"
    INDEX 01 01:00:18
  TRACK 37 AUDIO
    TITLE "3:cjc173_5762"
    INDEX 01 01:00:63
  TRACK 38 AUDIO
    TITLE "0:"
    INDEX 01 01:02:04
  TRACK 39 AUDIO
    TITLE "4:cjc173_5763"
    INDEX 01 01:02:23
  TRACK 40 AUDIO
    TITLE "0:"
    INDEX 01 01:04:42
  TRACK 41 AUDIO
    TITLE "5:cjc173_5764"
    INDEX 01 01:04:61
  TRACK 42 AUDIO
    TITLE "0:"
    INDEX 01 01:10:50
  TRACK 43 AUDIO
    TITLE "3:cjc173_5765"
    INDEX 01 01:11:22
  TRACK 44 AUDIO
    TITLE "0:"
    INDEX 01 01:12:51
  TRACK 45 AUDIO
    TITLE "4:cjc173_5766"
    INDEX 01 01:12:71
  TRACK 46 AUDIO
    TITLE "0:"
    INDEX 01 01:15:22
  TRACK 47 AUDIO
    TITLE "5:cjc173_5767"
    INDEX 01 01:15:41
  TRACK 48 AUDIO
    TITLE "0:"
    INDEX 01 01:18:63
  TRACK 49 AUDIO
    TITLE "3:cjc173_5768"
    INDEX 01 01:19:33
  TRACK 50 AUDIO
    TITLE "0:"
    INDEX 01 01:20:45
  TRACK 51 AUDIO
    TITLE "4:cjc173_5769"
    INDEX 01 01:20:64
  TRACK 52 AUDIO
    TITLE "0:"
    INDEX 01 01:23:29
  TRACK 53 AUDIO
    TITLE "5:cjc173_5770"
    INDEX 01 01:23:49
  TRACK 54 AUDIO
    TITLE "0:"
    INDEX 01 01:29:18
  TRACK 55 AUDIO
    TITLE "3:cjc173_5771"
    INDEX 01 01:29:65
  TRACK 56 AUDIO
    TITLE "0:"
    INDEX 01 01:31:15
  TRACK 57 AUDIO
    TITLE "4:cjc173_5772"
    INDEX 01 01:31:35
  TRACK 58 AUDIO
    TITLE "0:"
    INDEX 01 01:32:63
  TRACK 59 AUDIO
    TITLE "5:cjc173_5773"
    INDEX 01 01:33:12
  TRACK 60 AUDIO
    TITLE "0:"
    INDEX 01 01:38:23
